<?xml version="1.0" encoding="utf-8"?>
<!-- Generator: Adobe Illustrator 22.1.0, SVG Export Plug-In . SVG Version: 6.00 Build 0)  -->
<svg version="1.1" id="Layer_1" xmlns="http://www.w3.org/2000/svg" xmlns:xlink="http://www.w3.org/1999/xlink" x="0px" y="0px"
	 viewBox="0 0 512 512" style="enable-background:new 0 0 512 512;" xml:space="preserve">
<style type="text/css">
	.st0{fill:url(#SVGID_1_);}
	.st1{fill:#FFFFFF;}
	.st2{fill:url(#SVGID_2_);}
</style>
<g>
	<g>
		
			<linearGradient id="SVGID_1_" gradientUnits="userSpaceOnUse" x1="720.814" y1="-519.8478" x2="720.814" y2="-519.96" gradientTransform="matrix(2500 0 0 -2500 -1801779 -1299419)">
			<stop  offset="0" style="stop-color:#139FDA"/>
			<stop  offset="1" style="stop-color:#2359A7"/>
		</linearGradient>
		<path class="st0" d="M256,31C131.7,31,31,131.7,31,256s100.7,225,225,225s225-100.7,225-225S380.3,31,256,31z"/>
		<path class="st1" d="M256,41.5c-118.4,0-214.5,96-214.5,214.5s96,214.5,214.5,214.5s214.5-96,214.5-214.5S374.4,41.5,256,41.5z"/>
		
			<linearGradient id="SVGID_2_" gradientUnits="userSpaceOnUse" x1="720.743" y1="-519.8861" x2="720.743" y2="-519.9983" gradientTransform="matrix(2265.625 0 0 -2265.625 -1632677.5 -1177661.25)">
			<stop  offset="0" style="stop-color:#139FDA"/>
			<stop  offset="1" style="stop-color:#2359A7"/>
		</linearGradient>
		<path class="st2" d="M256,52.1C143.4,52.1,52.1,143.4,52.1,256S143.4,459.9,256,459.9S459.9,368.6,459.9,256S368.6,52.1,256,52.1z
			"/>
	</g>
	<path class="st1" d="M284.5,205.1l0,64.7l26,106.8c1.7,7,1.7,14.1-5.3,15.9c-6.9,1.7-12.3-0.2-14.1-7.2l-32.5-99h-10.4l-30.9,99
		c-2.6,6.7-7.4,9.8-14.1,7.2c-6.6-2.6-6.5-10.1-3.9-16.8l25.1-104.7v-65.9l-73.9-6.6c-6.5-0.5-11.1-4.1-10.5-10.5
		c0.5-6.5,6.6-10.4,13-9.8h117.1l88.1-0.1c6.5-0.2,13.7,3.4,13.9,10c0.3,6.4-7.4,10.3-13.9,10.5L284.5,205.1z M278.4,142.8
		c0,13.3-10.7,24-24,24c0,0,0,0,0,0c-13.2,0-23.9-10.7-23.9-24c0-13.2,10.7-23.9,23.9-23.9C267.7,118.9,278.4,129.6,278.4,142.8z"/>
</g>
</svg>
